PathFileType	4	(X/Y/Z)	OpenSim_Sub09_EMGBaseline_Magnet.trc
DataRate	CameraRate	NumFrames	NumMarkers	Units	OrigDataRate	OrigDataStartFrame	OrigNumFrames
100	100	20	8	m	100	2738	7301
Frame#	Time	torso_imu_offset_imu	pelvis_imu_offset_imu	tibia_r_imu_offset_imu	femur_r_imu_offset_imu	tibia_l_imu_offset_imu	femur_l_imu_offset_imu	toes_r_imu_offset_imu	toes_l_imu_offset_imu
				X1	Y1	Z1	X2	Y2	Z2	X3	Y3	Z3	X4	Y4	Z4	X5	Y5	Z5	X6	Y6	Z6	X7	Y7	Z7	X8		Y8	Z8	

2738	27.37000000	-0.93188500	-0.16479500	0.04272500	-0.67529300	0.27929700	-0.57128900	-0.68432600	-0.49316400	-0.01684600	-0.81274400	-0.20654300	0.09179700	-0.33715800	0.73144500	0.19506800	-0.71044900	0.35498000	0.27392600	-0.67089800	-0.07202100	-0.42163100	-0.80419900	-0.01293900	-0.17993200
2739	27.38000000	-0.92968800	-0.16284200	0.03808600	-0.68139600	0.27294900	-0.57104500	-0.68432600	-0.49316400	-0.01464800	-0.81030300	-0.21289100	0.09668000	-0.31494100	0.73584000	0.19458000	-0.70825200	0.35083000	0.26269500	-0.67919900	-0.08032200	-0.41723600	-0.81323200	-0.00659200	-0.14404300
2740	27.39000000	-0.92968800	-0.16479500	0.03393600	-0.68335000	0.26660200	-0.57080100	-0.67358400	-0.50366200	0.00585900	-0.80835000	-0.21289100	0.10351600	-0.30175800	0.74462900	0.19384800	-0.71704100	0.35058600	0.25830100	-0.67700200	-0.08252000	-0.40893600	-0.82080100	0.01513700	-0.11474600
2741	27.40000000	-0.93188500	-0.16479500	0.03613300	-0.68554700	0.26440400	-0.56835900	-0.66918900	-0.51196300	0.00830100	-0.80590800	-0.21899400	0.10156200	-0.27734400	0.74902300	0.18896500	-0.71655300	0.34204100	0.25170900	-0.68310500	-0.08667000	-0.40893600	-0.81494100	0.03930700	-0.08349600
2742	27.41000000	-0.92968800	-0.16699200	0.03393600	-0.68335000	0.26025400	-0.57055700	-0.66674800	-0.52246100	0.01538100	-0.79956100	-0.22729500	0.10864300	-0.26611300	0.75122100	0.18872100	-0.72949200	0.33300800	0.25170900	-0.67895500	-0.09057600	-0.40258800	-0.81567400	0.05444300	-0.04077100
2743	27.42000000	-0.93188500	-0.16284200	0.03369100	-0.68530300	0.25805700	-0.57275400	-0.65380900	-0.53076200	0.01586900	-0.79272500	-0.24169900	0.11377000	-0.24194300	0.76025400	0.18798800	-0.73364300	0.32006800	0.24511700	-0.67700200	-0.08642600	-0.40673800	-0.82104500	0.08081100	-0.02294900
2744	27.43000000	-0.93188500	-0.16284200	0.03369100	-0.68310500	0.25610400	-0.56811500	-0.64721700	-0.54126000	0.01611300	-0.79052700	-0.25000000	0.11425800	-0.22656200	0.76904300	0.17602500	-0.73754900	0.30688500	0.24536100	-0.67675800	-0.08862300	-0.39843800	-0.81518600	0.10034200	0.01074200
2745	27.44000000	-0.93164100	-0.16918900	0.03393600	-0.68286100	0.24780300	-0.58398400	-0.64917000	-0.54541000	0.01855500	-0.78613300	-0.26025400	0.12597700	-0.20898400	0.78002900	0.17968800	-0.74585000	0.29589800	0.23632800	-0.67675800	-0.09277300	-0.40258800	-0.81127900	0.11792000	0.04663100
2746	27.45000000	-0.92968800	-0.16479500	0.03613300	-0.68701200	0.24560500	-0.58154300	-0.64672900	-0.55175800	0.02539100	-0.78149400	-0.27490200	0.12670900	-0.18872100	0.78222700	0.17480500	-0.75219700	0.28295900	0.23437500	-0.68090800	-0.08862300	-0.39624000	-0.80322300	0.13964800	0.07128900
2747	27.46000000	-0.93383800	-0.16699200	0.03833000	-0.68505900	0.24975600	-0.58178700	-0.63818400	-0.55786100	0.01684600	-0.77685500	-0.28930700	0.12719700	-0.17114300	0.78686500	0.16552700	-0.75390600	0.27197300	0.23217800	-0.67480500	-0.08862300	-0.39624000	-0.79956100	0.16162100	0.09814500
2748	27.47000000	-0.92773400	-0.15844700	0.03369100	-0.68676800	0.24145500	-0.58618200	-0.64038100	-0.55786100	0.00781200	-0.77441400	-0.29760700	0.12988300	-0.15551800	0.79126000	0.16967800	-0.76709000	0.26757800	0.22338900	-0.67895500	-0.09057600	-0.40039100	-0.78906200	0.17919900	0.11621100
2749	27.48000000	-0.93627900	-0.16284200	0.02710000	-0.68457000	0.23925800	-0.58837900	-0.63818400	-0.56005900	0.00781200	-0.77026400	-0.29956100	0.13208000	-0.14209000	0.79126000	0.16040000	-0.76660200	0.25659200	0.21899400	-0.67675800	-0.09472700	-0.39404300	-0.78320300	0.20336900	0.13403300
2750	27.49000000	-0.93408200	-0.16284200	0.03149400	-0.68017600	0.23730500	-0.59057600	-0.63378900	-0.56201200	0.00561500	-0.76147500	-0.30981400	0.14184600	-0.13330100	0.79565400	0.15112300	-0.76855500	0.24585000	0.20996100	-0.67260700	-0.09472700	-0.39209000	-0.78149400	0.21655300	0.13623000
2751	27.50000000	-0.93408200	-0.16064500	0.02929700	-0.69067400	0.22876000	-0.59252900	-0.63134800	-0.57251000	0.00146500	-0.76562500	-0.31420900	0.13720700	-0.11572300	0.80224600	0.14160200	-0.77905300	0.23461900	0.21020500	-0.67895500	-0.08862300	-0.39843800	-0.77954100	0.22753900	0.12719700
2752	27.51000000	-0.93188500	-0.16284200	0.03149400	-0.69067400	0.22876000	-0.59033200	-0.63354500	-0.57251000	0.00146500	-0.76318400	-0.32446300	0.13989300	-0.11132800	0.80468800	0.13037100	-0.78125000	0.23046900	0.19897500	-0.68286100	-0.09887700	-0.39404300	-0.77539100	0.23437500	0.11816400
2753	27.52000000	-0.93408200	-0.15844700	0.03564500	-0.68847700	0.22241200	-0.59228500	-0.62695300	-0.58081100	-0.00024400	-0.76098600	-0.32861300	0.14233400	-0.10717800	0.81347700	0.10961900	-0.78515600	0.21728500	0.19458000	-0.67456100	-0.09472700	-0.38989300	-0.77563500	0.24096700	0.10473600
2754	27.53000000	-0.93432600	-0.15649400	0.03344700	-0.68847700	0.22680700	-0.59252900	-0.61645500	-0.58496100	0.00195300	-0.75244100	-0.33691400	0.14502000	-0.10717800	0.81347700	0.08300800	-0.78930700	0.21069300	0.19702100	-0.67431600	-0.10278300	-0.39184600	-0.78027300	0.24316400	0.10229500
2755	27.54000000	-0.93408200	-0.16064500	0.04467800	-0.69238300	0.21630900	-0.60376000	-0.62255900	-0.58496100	-0.00024400	-0.75000000	-0.34497100	0.14306600	-0.11621100	0.81152300	0.05395500	-0.79101600	0.19555700	0.19482400	-0.67871100	-0.09692400	-0.39404300	-0.77343800	0.24340800	0.09570300
2756	27.55000000	-0.93212900	-0.15429700	0.04003900	-0.69043000	0.21630900	-0.59692400	-0.62060500	-0.58496100	-0.00244100	-0.74780300	-0.34912100	0.14794900	-0.12744100	0.81152300	0.03173800	-0.79541000	0.19335900	0.19262700	-0.67236300	-0.10083000	-0.38769500	-0.78027300	0.24121100	0.08667000
2757	27.56000000	-0.94043000	-0.16284200	0.04028300	-0.68798800	0.21215800	-0.60131800	-0.62011700	-0.59326200	-0.00439500	-0.73925800	-0.35961900	0.15283200	-0.13647500	0.81152300	0.00952100	-0.79931600	0.17797900	0.18847700	-0.67236300	-0.10083000	-0.39184600	-0.78442400	0.23681600	0.06860400
